<svg width="24" height="24" viewBox="0 0 24 24" fill="none" xmlns="http://www.w3.org/2000/svg">
<path d="M20.2575 7.6575L14.3325 3.0525C12.96 1.9875 11.04 1.9875 9.6675 3.0525L3.7425 7.6575C2.8125 8.385 2.25 9.525 2.25 10.71V17.895C2.25 20.025 3.9675 21.75 6.075 21.75H17.925C20.0325 21.75 21.75 20.0175 21.75 17.895V10.71C21.75 9.525 21.195 8.3775 20.2575 7.6575ZM20.25 17.895C20.25 19.1925 19.2075 20.25 17.925 20.25H6.075C4.7925 20.25 3.75 19.1925 3.75 17.895V10.71C3.75 9.9825 4.0875 9.285 4.6575 8.835L10.5825 4.23C11.0025 3.9075 11.4975 3.7425 11.9925 3.7425C12.4875 3.7425 12.99 3.9075 13.4025 4.23L19.3275 8.835C19.8975 9.2775 20.235 9.975 20.235 10.71V17.895H20.25Z" fill="#9E9E9E"/>
<path d="M8.5 17.5H15.5" stroke="#9E9E9E" stroke-linecap="round"/>
</svg>
