<svg width="24" height="24" viewBox="0 0 24 24" fill="none" xmlns="http://www.w3.org/2000/svg">
<path d="M10.5483 2.89233C12.7241 2.47114 14.9336 3.02311 16.6089 4.40405C18.2877 5.78813 19.2494 7.82738 19.2495 9.99976C19.2495 11.605 18.7363 13.1226 17.7632 14.3943C16.7834 15.6749 16.2496 17.311 16.2495 18.9998C16.2495 20.2397 15.2403 21.2498 13.9995 21.2498H9.99951C8.75898 21.2495 7.74951 20.2396 7.74951 18.9998V18.8425C7.74941 17.2496 7.21134 15.6692 6.23584 14.3914H6.23486C5.05433 12.848 4.55734 10.9514 4.81689 9.00562L4.87842 8.61597C5.41009 5.74864 7.69147 3.4471 10.5483 2.89233ZM8.17432 17.8171C8.22125 18.1639 8.25046 18.5054 8.25049 18.8425V18.9998C8.25049 19.9647 9.03556 20.7495 10.0005 20.7498H14.0005C14.9656 20.7498 15.7505 19.9649 15.7505 18.9998V18.9568C15.7528 18.5779 15.785 18.1991 15.8384 17.8201L15.9185 17.2498H8.09814L8.17432 17.8171ZM11.9839 3.25171C11.6499 3.25171 11.3145 3.2761 10.979 3.32495L10.6431 3.38257C8.06549 3.88385 5.99848 5.90529 5.42139 8.45776L5.37061 8.70679C5.01351 10.6374 5.45966 12.5518 6.63232 14.0876C7.16721 14.7877 7.57682 15.5757 7.85205 16.407L7.96533 16.7498H16.0483L16.1606 16.405C16.435 15.5612 16.8412 14.7761 17.3657 14.0916V14.0906C18.2706 12.9081 18.7495 11.4923 18.7495 9.99976C18.7494 7.97738 17.8534 6.07663 16.2915 4.78882H16.2905C15.0722 3.78475 13.5524 3.25171 11.9839 3.25171Z" fill="#9E9E9E" stroke="#9E9E9E"/>
<path d="M12 7C13 7.16667 15 8 15 10" stroke="#9E9E9E" stroke-linecap="round"/>
</svg>
